<svg xmlns="http://www.w3.org/2000/svg" viewBox="0 0 100.71 112.82"><defs><style>.cls-1{fill:#86c3d0;}.cls-2{fill:#fff;}.cls-3{font-size:12px;fill:#1d1d1b;font-family:MyriadPro-Regular, Myriad Pro;}.cls-4{letter-spacing:-0.01em;}.cls-5{letter-spacing:0.01em;}.cls-6{letter-spacing:0em;}.cls-7{letter-spacing:-0.01em;}.cls-8{letter-spacing:0.01em;}.cls-9{letter-spacing:-0.01em;}.cls-10{letter-spacing:0.01em;}.cls-11{letter-spacing:-0.01em;}.cls-12{letter-spacing:0em;}.cls-13{letter-spacing:0.04em;}</style></defs><g id="API"><path class="cls-1" d="M50.35,13.37a43,43,0,1,0,43.05,43A43,43,0,0,0,50.35,13.37Z"/><path class="cls-2" d="M74.39,75.86H26.32a3.41,3.41,0,0,1-3.41-3.41V48.14A1.06,1.06,0,0,1,24,47.08H76.74a1.06,1.06,0,0,1,1.06,1.06V72.45A3.41,3.41,0,0,1,74.39,75.86ZM25,49.19V72.45a1.3,1.3,0,0,0,1.3,1.3H74.39a1.3,1.3,0,0,0,1.3-1.3V49.19Z"/><path class="cls-2" d="M76.74,49.19H24a1,1,0,0,1-1.05-1V40.37A3.41,3.41,0,0,1,26.32,37H74.39a3.41,3.41,0,0,1,3.41,3.41v7.77A1.05,1.05,0,0,1,76.74,49.19ZM25,47.08H75.69V40.37a1.3,1.3,0,0,0-1.3-1.3H26.32a1.3,1.3,0,0,0-1.3,1.3Z"/><path class="cls-2" d="M61.65,43.08a1.37,1.37,0,1,1-1.37-1.37A1.36,1.36,0,0,1,61.65,43.08Z"/><path class="cls-2" d="M66.67,43.08a1.37,1.37,0,1,1-1.37-1.37A1.36,1.36,0,0,1,66.67,43.08Z"/><path class="cls-2" d="M71.69,43.08a1.37,1.37,0,1,1-1.37-1.37A1.36,1.36,0,0,1,71.69,43.08Z"/><path class="cls-2" d="M50.35,62.76A1.05,1.05,0,0,1,49.3,61.7V38a1.06,1.06,0,0,1,2.11,0V61.7A1.05,1.05,0,0,1,50.35,62.76Z"/><path class="cls-2" d="M50.35,64.54a1,1,0,0,1-.74-.31l-7.77-7.76a1.07,1.07,0,0,1,0-1.5,1.06,1.06,0,0,1,1.49,0l7,7,7-7a1.06,1.06,0,0,1,1.49,0,1.07,1.07,0,0,1,0,1.5L51.1,64.23A1.05,1.05,0,0,1,50.35,64.54Z"/></g><g id="HOSTING"><text class="cls-3" transform="translate(-123.6 -4.98)">OpenID <tspan class="cls-4" x="41.17" y="0">C</tspan><tspan x="48" y="0">onne</tspan><tspan class="cls-5" x="73.92" y="0">c</tspan><tspan class="cls-6" x="79.45" y="0">t - </tspan><tspan class="cls-7" x="92.19" y="0">U</tspan><tspan x="99.89" y="0">ser</tspan><tspan class="cls-8" x="114.57" y="0">I</tspan><tspan x="117.56" y="0">n</tspan><tspan class="cls-9" x="124.22" y="0">f</tspan><tspan x="127.57" y="0">o</tspan></text><text class="cls-3" transform="translate(23.13 -6.36)"><tspan class="cls-10">O</tspan><tspan class="cls-11" x="8.44" y="0">v</tspan><tspan x="14.09" y="0">e</tspan><tspan class="cls-12" x="20.1" y="0">rr</tspan><tspan x="28.04" y="0">ide H</tspan><tspan class="cls-13" x="54" y="0">T</tspan><tspan x="60.42" y="0">TP method</tspan></text></g></svg>